<?xml version="1.0" encoding="utf-8"?>
<!-- Generator: Adobe Illustrator 27.0.0, SVG Export Plug-In . SVG Version: 6.00 Build 0)  -->
<svg version="1.1" id="Layer_1" xmlns="http://www.w3.org/2000/svg" xmlns:xlink="http://www.w3.org/1999/xlink" x="0px" y="0px"
	 viewBox="0 0 175.1 152.1" style="enable-background:new 0 0 175.1 152.1;" xml:space="preserve">
<style type="text/css">
	.st0{fill:url(#SVGID_1_);}
</style>
<radialGradient id="SVGID_1_" cx="87.5606" cy="77.9678" r="82.0003" gradientTransform="matrix(1 0 0 -1 0 154)" gradientUnits="userSpaceOnUse">
	<stop  offset="0" style="stop-color:#204051"/>
	<stop  offset="0.1" style="stop-color:#2F4D5A"/>
	<stop  offset="0.26" style="stop-color:#415D66"/>
	<stop  offset="0.42" style="stop-color:#4D676D"/>
	<stop  offset="0.6" style="stop-color:#516B70"/>
	<stop  offset="0.76" style="stop-color:#4A656F"/>
	<stop  offset="0.991" style="stop-color:#7C8D76"/>
	<stop  offset="1" style="stop-color:#4C676F"/>
</radialGradient>
<path class="st0" d="M87.9,131.2c2.8,1.8,5.5,1.1,8.1,0.8c8.1-1.1,14.9-5,21.2-9.9c7.8-6,15.6-12.3,23.5-18.1
	c8.4-6.2,17.9-9.7,28.5-9.7c0.5,0,0.9,0.1,1.4,0.1c0,0.2,0.1,0.3,0.1,0.5c-1.7,0.7-3.5,1.4-5.2,2.1c-6.8,2.5-13.2,5.8-18.2,11.1
	c-2.9,3.1-5.5,6.6-7.9,10.1c-7.9,11.4-17.3,20.9-29.9,27c-9.7,4.7-20,6.6-30.7,6.9c-14.8,0.4-28.7-2.8-41.5-10.3
	c-11.4-6.7-20.3-15.8-26.8-27.3C4,103.1,0.4,90.8,0,77.7c-0.5-17.4,4.6-33.2,15.1-47.1C26.8,15,42.4,5.1,61.7,1.5
	c25.7-4.8,48.4,1.9,67.5,19.8c11.3,10.6,18.7,23.7,21.8,39c0.9,4.4,1.1,8.9,1.2,13.3c0.1,3.1-1,4.2-4,4.7
	c-10.4,1.4-19.6,5.9-28.5,11.1c-7.1,4.2-14.2,8.5-21.4,12.6c-5.3,3.1-11,5.2-17.4,4.9c-11.5-0.5-24.4-8.6-25.9-23.2
	c-1.2-11.7,5-22.4,18.5-26c6.5-1.7,12.2-0.4,17,4.4c3.3,3.3,3.6,8.1,0.9,11.8c-2.8,3.9-8.3,3.9-11.1,0c-1.1-1.6-2-3.4-3.1-5.1
	c-3.4,5.2-0.9,12.1,4.9,14.4C87,85,93,83.4,96.7,79c4.8-5.6,5-13.2,0.7-19.8c-3.8-5.9-9.4-9-16.1-10.1C67,46.6,51.2,54,44,66.7
	c-5.1,9-4.8,18.3-1.3,27.8c4.1,11,11.5,18.7,22.8,22.3c8.2,2.6,16.4,2,24.7-0.1c7.7-2,14.2-6.3,20.6-10.7
	c7.4-5.1,14.7-10.2,22.4-14.9c8.5-5.2,17.9-7.7,28-7.2c4.8,0.2,9.2,1.6,13.3,3.8c0.2,0.1,0.5,0.2,0.7,0.3c-0.1,0.2-0.2,0.4-0.3,0.6
	c-0.9,0.1-1.9,0.3-2.9,0.2c-10.7-1.6-20.5,1.2-29.2,7.3c-7.1,4.9-13.9,10.3-20.6,15.8c-9.8,8-20.4,14.5-32.4,18.6
	C89.3,130.6,88.7,130.8,87.9,131.2L87.9,131.2z M98.8,46.3c0.1-0.1,0.2-0.2,0.3-0.3c-0.2-0.5-0.3-0.9-0.5-1.3
	c-2.3-5.3-6.7-8.8-11.3-11.8c-13.3-8.5-27.2-9.1-41.1-1.6c-9.2,5-14.9,13.2-18.7,22.8c-1.8,4.4-2.7,8.9-3.1,13.7
	c6.5-14.4,16.4-24.8,31.9-29.4C71.7,33.8,85.7,37.3,98.8,46.3L98.8,46.3z M23.8,96.1c-8.8-13-10.7-26.7-7.5-41.3
	c-0.4,0.2-0.6,0.4-0.7,0.6c-5.4,8.4-7.4,17.6-5.5,27.3c3.7,18.1,14.3,30.3,31.8,36.5c1,0.3,2,0.7,3,1c1,0.3,2,0.5,3,0.7
	c0.1-0.1,0.2-0.2,0.4-0.4c-14.7-12.5-20.6-27.9-16.1-47C26,79.7,25.8,87.9,23.8,96.1z"/>
</svg>
